<svg width="24" height="16" viewBox="0 0 24 16" fill="none" xmlns="http://www.w3.org/2000/svg">
  <path d="M21.6667 16H1.66667C1.2248 15.9995 0.801186 15.8237 0.48874 15.5113C0.176294 15.1988 0.000529286 14.7752 0 14.3333V10H0.666667V14.3333C0.666667 14.5986 0.772024 14.8529 0.95956 15.0404C1.1471 15.228 1.40145 15.3333 1.66667 15.3333H21.6667C21.9319 15.3333 22.1862 15.228 22.3738 15.0404C22.5613 14.8529 22.6667 14.5986 22.6667 14.3333V1.66667C22.6667 1.40145 22.5613 1.1471 22.3738 0.95956C22.1862 0.772023 21.9319 0.666667 21.6667 0.666667H1.66667C1.40145 0.666667 1.1471 0.772023 0.95956 0.95956C0.772024 1.1471 0.666667 1.40145 0.666667 1.66667V8.66667H0V1.66667C0.000529286 1.2248 0.176294 0.801186 0.48874 0.48874C0.801186 0.176294 1.2248 0.000529286 1.66667 0H21.6667C22.1085 0.000529286 22.5322 0.176294 22.8446 0.48874C23.1571 0.801186 23.3328 1.2248 23.3333 1.66667V14.3333C23.3328 14.7752 23.1571 15.1988 22.8446 15.5113C22.5322 15.8237 22.1085 15.9995 21.6667 16Z" fill="#002f68" />
  <path d="M20 3H23V3.66666H20V3Z" fill="#002f68" />
  <path d="M0.33335 3H18.6667V3.66666H0.33335V3Z" fill="#002f68" />
  <path d="M0.33335 5.99999H23V6.66666H0.33335V5.99999Z" fill="#002f68" />
  <path d="M1.99998 13.6667H8.99998V14.3333H1.99998V13.6667Z" fill="#002f68" />
  <path d="M1.99998 12H5.66665V12.6667H1.99998V12Z" fill="#002f68" />
</svg>
  