<svg width="16" height="16" viewBox="0 0 16 16" fill="none" xmlns="http://www.w3.org/2000/svg">
  <path d="M15.9955 2.21349C15.9955 0.992967 15.0025 0 13.782 0C12.7217 0 11.8335 0.7496 11.6186 1.74663H8.54837C8.1311 1.74663 7.7388 1.90909 7.44366 2.20415L0.457735 9.18841C0.162588 9.4835 4.50533e-09 9.87589 4.50533e-09 10.2933C-3.12445e-05 10.7106 0.162495 11.103 0.457641 11.3982L4.60182 15.5424C4.89693 15.8374 5.28929 16 5.70662 16C6.12395 16 6.51631 15.8375 6.81143 15.5424L9.22835 13.1254C9.35038 13.0034 9.35038 12.8055 9.22835 12.6835C9.10629 12.5615 8.90849 12.5615 8.7864 12.6835L6.36948 15.1004C6.00396 15.4659 5.40923 15.4659 5.04371 15.1004L0.899533 10.9563C0.722445 10.7792 0.624917 10.5437 0.624948 10.2933C0.624948 10.0429 0.722476 9.80746 0.899595 9.6304L7.88555 2.64613C8.06261 2.46911 8.29801 2.37161 8.54837 2.37161H11.5747C11.6121 2.90322 11.8363 3.39807 12.2168 3.77859C12.3389 3.90065 12.5367 3.90065 12.6587 3.77862C12.7808 3.6566 12.7808 3.45876 12.6588 3.3367C12.3963 3.07424 12.2371 2.73613 12.2013 2.37158H12.6928C13.2097 2.37158 13.6302 2.79213 13.6302 3.30905V7.45141C13.6302 7.70181 13.5327 7.93724 13.3556 8.11429L10.7751 10.6949C10.6531 10.8169 10.6531 11.0148 10.7751 11.1368C10.8971 11.2588 11.0949 11.2588 11.217 11.1368L13.7976 8.55625C14.0927 8.26113 14.2552 7.86877 14.2552 7.45144V4.37592C15.2629 4.15833 15.9955 3.26914 15.9955 2.21349ZM14.2552 3.7306V3.30905C14.2552 2.44751 13.5543 1.7466 12.6928 1.7466H12.2637C12.4636 1.09784 13.0686 0.624979 13.782 0.624979C14.6579 0.624979 15.3705 1.33758 15.3705 2.21349C15.3705 2.92381 14.9086 3.5291 14.2552 3.7306Z" fill="#002f68" />
  <path d="M4.30945 10.2763C4.43148 10.1543 4.43148 9.95645 4.30945 9.83439C4.18739 9.7124 3.98958 9.7124 3.86749 9.83439L3.11524 10.5866C2.99321 10.7087 2.99321 10.9065 3.11524 11.0286L4.9713 12.8847C5.03233 12.9457 5.1123 12.9762 5.19226 12.9762C5.27223 12.9762 5.3522 12.9457 5.41322 12.8847C5.53525 12.7627 5.53525 12.5648 5.41322 12.4427L4.68856 11.7181L5.16011 11.2465C5.28213 11.1245 5.28213 10.9266 5.16011 10.8046C5.03805 10.6826 4.84024 10.6826 4.71815 10.8046L4.24661 11.2761L3.77806 10.8076L4.30945 10.2763Z" fill="#002f68" />
  <path d="M7.99811 10.1708C8.16161 10.1708 8.29913 10.0436 8.30966 9.87817C8.32066 9.70593 8.18995 9.5574 8.0177 9.54643L6.98464 9.48056C7.07149 9.33128 7.12073 9.16238 7.1262 8.98673C7.1348 8.71034 7.03496 8.45353 6.84506 8.2636C6.45726 7.8758 5.814 7.88799 5.41104 8.29088L4.91781 8.78411C4.9179 8.78402 4.91771 8.78421 4.91781 8.78411C4.91771 8.78421 4.91731 8.78461 4.91721 8.78471C4.79519 8.90673 4.79519 9.1046 4.91721 9.22666L6.77331 11.0827C6.83434 11.1437 6.9143 11.1743 6.99427 11.1743C7.07424 11.1743 7.1542 11.1437 7.21523 11.0827C7.33726 10.9607 7.33726 10.7628 7.21523 10.6408L6.66053 10.0861L7.97786 10.1701C7.98471 10.1705 7.99145 10.1708 7.99811 10.1708ZM5.85303 8.7328C6.00952 8.57631 6.26142 8.56381 6.40313 8.70552C6.46979 8.77218 6.50472 8.86508 6.50154 8.9672C6.49822 9.07395 6.45238 9.17904 6.37582 9.2556C6.31317 9.31825 6.20523 9.42709 6.10667 9.52662C6.00933 9.43028 5.90368 9.3255 5.8434 9.26525C5.79184 9.21372 5.68291 9.10535 5.58141 9.00439L5.85303 8.7328Z" fill="#002f68" />
  <path d="M11.0415 7.25651L11.8236 6.47444C11.9456 6.35241 11.9456 6.15455 11.8236 6.03249C11.7015 5.91049 11.5037 5.91049 11.3816 6.03249L10.8205 6.59359L10.3344 6.10748L10.8378 5.60403C10.9599 5.48201 10.9599 5.28414 10.8378 5.16208C10.7158 5.04008 10.518 5.04008 10.3959 5.16208L9.89245 5.66553L9.40631 5.17939L9.96745 4.61828C10.0895 4.49626 10.0895 4.29839 9.96745 4.17633C9.84539 4.05433 9.64759 4.05433 9.5255 4.17633L8.74343 4.9584C8.6214 5.08043 8.6214 5.27829 8.74343 5.40035L10.5995 7.25648C10.6581 7.31507 10.7376 7.34801 10.8205 7.34801C10.9034 7.34801 10.9829 7.3151 11.0415 7.25651Z" fill="#002f68" />
  <path d="M9.0082 9.16038C9.09107 9.16038 9.17054 9.12745 9.22916 9.06886L10.0112 8.28679C10.1333 8.16476 10.1333 7.96689 10.0112 7.84483C9.88917 7.72284 9.69137 7.72284 9.56928 7.84483L9.00817 8.40594L8.52206 7.91983L9.02554 7.41638C9.14757 7.29435 9.14757 7.09648 9.02554 6.97442C8.90352 6.85249 8.70571 6.85243 8.58359 6.97442L8.08014 7.47788L7.59403 6.99177L8.15517 6.43066C8.27719 6.30863 8.27719 6.11077 8.15517 5.98871C8.03311 5.86671 7.8353 5.86671 7.71321 5.98871L6.93114 6.77078C6.80912 6.8928 6.80912 7.09067 6.93114 7.21273L8.78721 9.06882C8.84583 9.12745 8.9253 9.16038 9.0082 9.16038Z" fill="#002f68" />
  <path d="M10.0017 11.5977C9.91956 11.5977 9.83893 11.6311 9.78081 11.6893C9.72271 11.7474 9.68924 11.828 9.68924 11.9102C9.68924 11.9924 9.72268 12.073 9.78081 12.1311C9.83893 12.1892 9.91956 12.2227 10.0017 12.2227C10.0839 12.2227 10.1646 12.1893 10.2227 12.1311C10.2808 12.073 10.3142 11.9924 10.3142 11.9102C10.3142 11.828 10.2808 11.7474 10.2227 11.6893C10.1646 11.6311 10.0839 11.5977 10.0017 11.5977Z" fill="#002f68" />
</svg>
  